# WaveFront *.obj file (generated by Autodesk ATF)

mtllib basePlate.mtl

g Body1

v -10.000000 15.000000 0.250000
v -10.000000 0.000000 0.250000
v 0.000000 0.000000 0.250000
v 0.000000 15.000000 0.250000
v 0.000000 15.000000 0.000000
v -10.000000 15.000000 0.000000
v 0.000000 0.000000 0.000000
v -10.000000 0.000000 0.000000
vt -5.000000 -7.500000 0.000000
vt 5.000000 -7.500000 0.000000
vt -5.000000 7.500000 0.000000
vt 5.000000 7.500000 0.000000
vt 10.000000 0.250000 0.000000
vt 0.000000 0.250000 0.000000
vt 10.000000 0.000000 0.000000
vt 0.000000 0.000000 0.000000
vt 15.000000 0.250000 0.000000
vt 0.000000 0.250000 0.000000
vt 15.000000 0.000000 0.000000
vt 0.000000 0.000000 0.000000
vt 10.000000 0.250000 0.000000
vt 0.000000 0.250000 0.000000
vt 10.000000 0.000000 0.000000
vt 0.000000 0.000000 0.000000
vt 15.000000 0.250000 0.000000
vt 0.000000 0.250000 0.000000
vt 15.000000 0.000000 0.000000
vt 0.000000 0.000000 0.000000
vt 5.000000 7.500000 0.000000
vt -5.000000 7.500000 0.000000
vt 5.000000 -7.500000 0.000000
vt -5.000000 -7.500000 0.000000
vn -0.000000 -0.000000 1.000000
vn -0.000000 -0.000000 1.000000
vn -0.000000 -0.000000 1.000000
vn -0.000000 -0.000000 1.000000
vn 0.000000 1.000000 0.000000
vn 0.000000 1.000000 0.000000
vn 0.000000 1.000000 0.000000
vn 0.000000 1.000000 0.000000
vn 1.000000 0.000000 0.000000
vn 1.000000 0.000000 0.000000
vn 1.000000 0.000000 0.000000
vn 1.000000 0.000000 0.000000
vn 0.000000 -1.000000 0.000000
vn 0.000000 -1.000000 0.000000
vn 0.000000 -1.000000 0.000000
vn 0.000000 -1.000000 0.000000
vn -1.000000 0.000000 0.000000
vn -1.000000 0.000000 0.000000
vn -1.000000 0.000000 0.000000
vn -1.000000 0.000000 0.000000
vn -0.000000 -0.000000 -1.000000
vn -0.000000 -0.000000 -1.000000
vn -0.000000 -0.000000 -1.000000
vn -0.000000 -0.000000 -1.000000
usemtl Fabric_(Yellow)
f 2/1/1 3/2/2 1/3/3
f 1/3/3 3/2/2 4/4/4
f 1/5/5 4/6/6 6/7/7
f 6/7/7 4/6/6 5/8/8
f 4/9/9 3/10/10 5/11/11
f 5/11/11 3/10/10 7/12/12
f 3/13/13 2/14/14 7/15/15
f 7/15/15 2/14/14 8/16/16
f 2/17/17 1/18/18 8/19/19
f 8/19/19 1/18/18 6/20/20
f 6/21/21 5/22/22 8/23/23
f 8/23/23 5/22/22 7/24/24
# 8 vertices
# 24 texture params
# 24 normals
# 12 facets

# 1 groups
